<svg xmlns="http://www.w3.org/2000/svg" xmlns:xlink="http://www.w3.org/1999/xlink" height="512" width="512" xmlns:v="https://vecta.io/nano"><path d="M512 256c0 66.47-25.34 127.02-66.87 172.53-34.87 38.2-84.425 31.378-136.725 42.968-13.75 3.05-24.655 39.422-39.135 40.162-3.84.2-7.7.3-11.6.33-.55.01-14.105-11.672-14.665-11.672-58.4 0-87.95-33.367-131.02-66.286-16.88-12.9-43.384-2.352-56.584-18.982C20.72 371.37 0 316.1 0 256 0 114.62 114.62 0 256 0s256 114.62 256 256z" fill="#e4f6ff"/><path d="M471.62 262.01V140.398c0-58.954-47.792-106.746-106.746-106.746S258.127 81.444 258.127 140.398V260.59c-12.34 1.327-21.948 11.77-21.948 24.463 0 13.59 11.017 24.608 24.608 24.608h202.185c13.59 0 24.608-11.017 24.608-24.608.001-10.548-6.636-19.542-15.96-23.043z" fill="#9d66d5"/><path d="M323.644 285.048c0 6.8 2.75 12.95 7.2 17.4a24.54 24.54 0 0 0 17.4 7.2h-87.456a24.54 24.54 0 0 1-17.4-7.2c-4.45-4.46-7.2-10.6-7.2-17.4 0-12.7 9.6-23.13 21.95-24.46v-120.2c0-29.48 11.95-56.16 31.27-75.48 19.3-19.32 46-31.27 75.48-31.27 8.4 0 16.6.97 24.44 2.8-19.66 4.6-37.23 14.65-51.04 28.46-19.32 19.32-31.27 46-31.27 75.48v120.2c-12.33 1.33 16.636 11.77 16.636 24.46z" fill="#734a9b"/><path d="M445.13 411.35v17.18c-44.04 48.24-106.28 79.58-175.86 83.13v-100.3c0-35.2 28.53-63.74 63.73-63.74h48.4c35.2 0 63.74 28.54 63.74 63.74z" fill="#78c2a4"/><path d="M375.42 347.6c-35.2 0-63.75 28.54-63.75 63.74v94.57a256.08 256.08 0 0 1-42.4 5.74v-100.3c0-35.2 28.53-63.74 63.74-63.74z" fill="#66b394"/><path d="M385.753 276.45v75.518a28.72 28.72 0 0 1-28.84 28.84c-5.612 0-10.85-1.598-15.27-4.38-8.145-5.093-13.57-14.148-13.57-24.46V276.45z" fill="#ffddce"/><g fill="#ffcbbe"><path d="M385.753 276.45v71.972a86.08 86.08 0 0 1-12.014.833c-16.758 0-32.41-4.76-45.666-13.01V276.45z"/><path d="M341.643 305.766v70.663c-8.145-5.093-13.57-14.148-13.57-24.46v-46.202zm124.232-79.55H274.24c-12.407 0-22.464-10.058-22.464-22.464s10.058-22.464 22.464-22.464h191.636c12.407 0 22.464 10.058 22.464 22.464s-10.057 22.464-22.464 22.464z"/></g><path d="M274.24 213.35a9.61 9.61 0 0 1-9.597-9.597 9.61 9.61 0 0 1 9.597-9.597h191.635a9.61 9.61 0 0 1 9.597 9.597 9.61 9.61 0 0 1-9.597 9.597z" fill="#eaac9d"/><path d="M460.388 165.54v84.06c0 47.85-38.8 86.65-86.65 86.65-47.85 0-86.65-38.8-86.65-86.65v-84.06c0-4.6.36-9.1 1.05-13.5h71.66c5 0 9.85-.73 14.42-2.1a50.29 50.29 0 0 0 22.01-13.45 50.45 50.45 0 0 0 10.47-16.2c7.46 18.6 25.64 31.75 46.9 31.75h5.73c.7 4.4 1.05 8.9 1.05 13.5z" fill="#ffddce"/><g fill="#ffcbbe"><path d="M395.688 333.44c-7 1.84-14.37 2.8-21.95 2.8-47.85 0-86.65-38.8-86.65-86.65v-84.06a87.01 87.01 0 0 1 1.05-13.5h43.9c-.7 4.4-1.05 8.9-1.05 13.5v84.06c0 40.27 27.48 74.13 64.7 83.84zm.54-196.95v90.2h-22v-76.74a50.29 50.29 0 0 0 22.01-13.45z"/><path d="M398.4 210.528h-17.727a12.33 12.33 0 0 0-12.327 12.327 12.33 12.33 0 0 0 12.327 12.327H398.4a12.33 12.33 0 0 0 12.327-12.327 12.33 12.33 0 0 0-12.327-12.327z"/></g><path d="M337.292 178.998c-5.88 0-11.76-2.238-16.236-6.715a7 7 0 0 1 9.899-9.899c3.495 3.494 9.18 3.494 12.674 0a7 7 0 0 1 9.899 9.899c-4.475 4.476-10.356 6.715-16.236 6.715zm95.53 0c-5.88 0-11.76-2.238-16.237-6.714a7 7 0 0 1 9.899-9.899c3.494 3.494 9.18 3.494 12.674 0a7 7 0 0 1 9.899 9.899c-4.475 4.476-10.355 6.714-16.235 6.714z" fill="#26457d"/><use xlink:href="#B" fill="#ffcbbe"/><g fill="#21386b"><use xlink:href="#C"/><use xlink:href="#C" x="67.852"/></g><path d="M257.67 440.9V512H256c-81.28 0-153.7-37.88-200.6-96.95 10.53-28.67 38.07-49.12 70.4-49.12h56.9c41.4 0 74.97 33.56 74.97 74.97z" fill="#dd5790"/><path d="M175.67 365.93c-41.4 0-74.97 33.56-74.97 74.97v18.63a257.39 257.39 0 0 1-45.3-44.48c10.52-28.67 38.06-49.12 70.4-49.12z" fill="#9d549b"/><path d="M187.832 282.23v88.82c0 9.37-3.8 17.85-9.94 23.98-6.13 6.14-14.6 9.94-23.98 9.94-6.6 0-12.76-1.88-17.96-5.15-9.58-6-15.96-16.64-15.96-28.77v-88.82z" fill="#ffddce"/><g fill="#ffcbbe"><path d="M187.832 282.23v84.65c-4.62.65-9.33.98-14.13.98-19.7 0-38.12-5.6-53.7-15.3v-70.33z"/><path d="M135.952 316.7v83.1c-9.58-6-15.96-16.64-15.96-28.77V316.7z"/></g><path d="M132.58 44.803c-36.482 0-67.013 25.39-74.943 59.46L39.565 86.19C26.687 99.067 24.107 118.33 31.8 133.78H10c0 22.802 18.485 41.287 41.287 41.287a41.53 41.53 0 0 0 4.327-.227v7.3h126.033V44.803z" fill="#21386b"/><path d="m59.876 187.203c-16.123 16.123-16.123 42.265 0 58.388s42.265 16.123 58.388 0" fill="#26457d"/><path d="M282.067 223.15H56.675c-14.592 0-26.422-11.83-26.422-26.422s11.83-26.422 26.422-26.422h225.392c14.592 0 26.422 11.83 26.422 26.422s-11.83 26.422-26.422 26.422z" fill="#ffcbbe"/><path d="M56.675 208.015c-6.224 0-11.288-5.064-11.288-11.287s5.063-11.288 11.288-11.288h225.392c6.224 0 11.288 5.064 11.288 11.287s-5.063 11.288-11.288 11.288z" fill="#eaac9d"/><path d="M173.702 352.56C117.417 352.56 71.8 306.934 71.8 250.65v-72.255c0-56.284 45.627-101.912 101.912-101.912H230.5c24.916 0 45.115 20.2 45.115 45.115V250.65c-.001 56.284-45.628 101.912-101.912 101.912z" fill="#ffddce"/><path d="M198.85 349.43c-8.043 2.043-16.464 3.124-25.144 3.124-56.288 0-101.917-45.618-101.917-101.906v-72.254c0-56.288 45.63-101.917 101.917-101.917h50.277c-56.277 0-101.906 45.63-101.906 101.917v72.254c0 47.618 32.646 87.594 76.773 98.782z" fill="#ffcbbe"/><g fill="#21386b"><use xlink:href="#D"/><use xlink:href="#D" x="79.794"/></g><path d="M200.15 223.688h-25.882V89.423c0-7.147 5.794-12.94 12.94-12.94s12.94 5.794 12.94 12.94z" fill="#ffcbbe"/><path d="M99.294 57.764V73.13c-19.824 7.26-33.97 26.295-33.97 48.634v48.542h7.135c25.542 0 46.248-20.706 46.248-46.248V92.992h21.717c18.977 0 34.36-15.384 34.36-34.36v-.868h-75.5z" fill="#21386b"/><path d="M267.33 55.613l23.035-23.035c-21.718-21.718-56.93-21.718-78.648 0V0c-30.714 0-55.613 24.9-55.613 55.613s24.9 55.612 55.613 55.612h111.225c0-30.714-24.898-55.612-55.612-55.612z" fill="#26457d"/><g fill="#ffcbbe"><path d="M202.708 204.696h-20.85a14.5 14.5 0 0 0-14.499 14.499 14.5 14.5 0 0 0 14.499 14.499h20.85a14.5 14.5 0 0 0 14.499-14.499 14.5 14.5 0 0 0-14.499-14.499z"/><use xlink:href="#B" x="-199.556" y="-9.469"/></g><defs ><path id="B" d="M371.192 283.572c-20.82 0-37.76-16.938-37.76-37.76a6.5 6.5 0 1 1 13 0c0 13.652 11.107 24.76 24.76 24.76a6.5 6.5 0 1 1 0 13z"/><path id="C" d="M351.296 204.21c-6.077 0-11.003-4.926-11.003-11.003v-22.923c0-6.077 4.926-11.003 11.003-11.003s11.003 4.926 11.003 11.003v22.923c0 6.077-4.926 11.003-11.003 11.003z"/><path id="D" d="M147.306 197.267c-7.147 0-12.94-5.794-12.94-12.94v-26.96c0-7.147 5.794-12.94 12.94-12.94s12.94 5.794 12.94 12.94v26.96c0 7.147-5.794 12.94-12.94 12.94z"/></defs></svg>