<svg xmlns="http://www.w3.org/2000/svg" width="100%" height="100%" viewBox="0 0 683 683" fill-rule="nonzero" stroke-linejoin="round" stroke-miterlimit="2" xmlns:v="https://vecta.io/nano"><path d="M682.667 341.334c0 188.516-152.817 341.333-341.333 341.333S0 529.85 0 341.334 152.817 0 341.334 0s341.333 152.817 341.333 341.334z" fill="#00d7ff"/><path d="M348.74 682.574c172.614-3.678 313.672-135.48 331.912-304.126L480.235 178.03l-111.507-15.396-250.947 288.98 230.96 230.96z" fill="#009fff"/><path d="M524.27 482.534c52.22 0 94.533-42.334 94.533-94.552 0-49.38-37.864-89.902-86.14-94.157-11.473-39.302-47.75-68.02-90.754-68.02a94.19 94.19 0 0 0-34.583 6.557c-23.864-37.885-66.058-63.057-114.136-63.057-72.416 0-131.5 57.104-134.662 128.74-37.926 12.303-65.36 47.912-65.36 89.938 0 52.218 42.334 94.552 94.552 94.552h336.55z" fill="#fff"/><path d="M532.678 293.84c-11.474-39.303-47.75-68.02-90.755-68.02-11.837-.006-23.57 2.216-34.583 6.552-15.516-24.63-38.792-43.867-66.387-54.34v304.502h183.314c52.22 0 94.552-42.334 94.552-94.552 0-49.38-37.864-89.902-86.14-94.157l-.001.015z" fill="#dbeeff"/><path d="M498.534 294.63h-40V233.85c0-30.005-24.414-54.416-54.416-54.416s-54.416 24.414-54.416 54.418v60.78h-40v-60.78c0-52.063 42.36-94.416 94.418-94.416s94.415 42.352 94.415 94.414v60.782z" fill="#4a7aff"/><path d="M404.136 139.432l-1.276.03v40l1.276-.03c30 0 54.414 24.413 54.414 54.417v60.782h40V233.85c0-52.062-42.355-94.416-94.414-94.416v-.001z" fill="#2864f0"/><path d="M284.853 275.656h238.56v168.757h-238.56z" fill="#2d5396"/><path d="M402.86 275.656h120.552v168.757H402.86z" fill="#1b3b6b"/><path d="M383.414 329.864h41.443v74.58h-41.443z" fill="#4a98f7"/><path d="M402.86 329.864h21.995v74.58H402.86z" fill="#4a7aff"/></svg>