<svg xmlns="http://www.w3.org/2000/svg" xmlns:xlink="http://www.w3.org/1999/xlink" viewBox="0 0 512 512" xmlns:v="https://vecta.io/nano"><circle cx="256" cy="256" r="256" fill="#ffd93b"/><g fill="#3e4347"><use xlink:href="#B"/><use xlink:href="#B"/></g><path d="M512 256c0 141.44-114.64 256-256 256-80.48 0-152.32-37.12-199.28-95.28 43.92 35.52 99.84 56.72 160.72 56.72 141.36 0 256-114.56 256-256 0-60.88-21.2-116.8-56.72-160.72C474.8 103.68 512 175.52 512 256z" fill="#f4c534"/><path d="M116.656 247.744c-3.008-5.904-.672-13.136 5.232-16.144l58.576-29.904-46.4-23.696c-5.904-3.008-8.24-10.24-5.232-16.144s10.24-8.24 16.144-5.232l67.328 34.384c4.016 2.048 6.544 6.176 6.544 10.688s-2.528 8.64-6.544 10.688L132.8 252.976c-5.968 3.04-13.168.608-16.144-5.232zm262.544 5.232l-79.504-40.592c-4.016-2.048-6.544-6.176-6.544-10.688s2.528-8.64 6.544-10.688l67.328-34.384c5.92-3.008 13.136-.672 16.144 5.232s.672 13.136-5.232 16.144l-46.4 23.696 58.56 29.904a11.99 11.99 0 0 1 5.232 16.144c-3.024 5.936-10.256 8.224-16.128 5.232z" fill="#3e4347"/><path d="M392.752 341.808l-.384.8c-7.744 15.76-23.264 26.128-40.768 27.52-63.744 5.072-127.488 4.976-191.232-.304-17.6-1.456-33.184-11.888-40.992-27.728l-.128-.272 273.504-.016z" fill="#fff"/><path d="M262.928 401.008c-6.768 3.344-14.816 5.328-24.032 5.328a52.54 52.54 0 0 1-5.328-.272c-11.472-.992-23.04 2.976-29.712 12.368-4.016 5.728-7.04 12.16-9.008 19.04 19.056 7.136 39.648 11.12 61.2 11.12 21.84 0 42.688-4.096 61.952-11.408-3.712-12.528-10.96-23.552-20.848-31.584-9.664-7.84-23.12-10.096-34.224-4.592z" fill="#e24b4b"/><ellipse transform="matrix(-.7727 -.6347 .6347 -.7727 243.8302 916.5141)" cx="285.994" cy="414.605" rx="10.032" ry="5.856" fill="#fff" opacity=".2"/><defs ><path id="B" d="M418.192 338.768c-25.76 64.4-88.64 109.84-162.16 109.84-73.6 0-136.48-45.44-162.24-109.84-3.6-9.04 2.8-18.96 12.56-18.96h299.28c9.76 0 16.16 9.92 12.56 18.96z"/></defs></svg>