<svg xmlns="http://www.w3.org/2000/svg" xmlns:xlink="http://www.w3.org/1999/xlink" width="100%" height="100%" viewBox="0 0 1439 663" fill-rule="evenodd" stroke-linejoin="round" stroke-miterlimit="2" xmlns:v="https://vecta.io/nano"><g fill="#ee3475" fill-rule="nonzero"><path d="M225.26 341.305l-27.834 71.356c-10.628 24.798-21.255 47.57-33.4 69.332-7.085 13.158-15.182 23.785-24.29 32.895-8.603 8.603-19.23 13.158-30.364 13.158-9.615 0-18.22-5.06-27.328-14.17-8.603-9.615-16.7-20.75-23.785-33.907-7.59-12.652-14.17-25.8-19.23-39.474-5.567-13.158-9.615-23.785-12.146-31.883-3.036-8.603-5.567-18.22-9.11-28.34l-9.11-31.377c-2.53-10.628-4.555-20.75-6.073-31.377C1.07 307.398.06 297.276.06 288.167c0-12.652 2.024-23.28 7.085-31.883 4.555-8.097 13.664-12.146 26.822-12.146 5.567 0 10.12 1.518 14.676 4.555 4.05 3.036 8.097 7.59 11.64 13.158s7.085 12.146 10.628 19.737c3.036 7.085 6.073 15.182 9.11 24.29 3.036 8.603 5.567 17.713 8.603 26.822l7.59 26.822c3.036 8.097 5.567 16.7 8.097 24.798 3.036 8.097 6.58 16.194 11.134 23.785 2.53-5.567 5.06-12.652 8.097-20.243l9.615-24.29 11.134-26.316c4.05-9.11 8.097-17.713 12.652-26.316 9.11-17.713 18.725-32.895 28.846-45.547 9.615-12.652 19.737-18.725 29.858-18.725 9.11 0 15.688 2.53 19.737 8.097 4.05 6.073 5.567 13.158 5.567 21.76 0 9.11-1.012 19.23-4.05 30.364s-7.085 22.773-11.64 34.413z"/><use xlink:href="#B"/><path d="M591.967 193.025c0 24.29-1.012 48.077-2.53 71.862-2.024 23.785-3.036 47.57-3.036 71.862 0 19.23 1.012 38.462 2.024 57.692a1097.48 1097.48 0 0 1 1.518 57.692c0 5.567 0 11.64-.506 19.23 0 7.085-1.012 14.676-3.036 21.255-2.024 7.085-4.555 13.158-9.11 17.713-4.05 5.06-9.615 7.59-17.206 7.59-10.12 0-18.22-3.543-24.798-11.134-6.073-7.59-10.12-15.688-12.146-24.798-6.073 11.64-15.182 21.76-26.822 29.858-12.146 8.603-24.798 12.652-38.462 12.652-15.182 0-27.834-5.06-38.462-15.688-10.628-10.12-19.737-22.267-26.822-36.943-7.085-14.17-12.146-29.352-15.688-45.547-3.543-15.688-5.06-29.352-5.06-40.992 0-8.097.506-17.713 1.518-27.834 1.012-10.628 2.53-21.255 5.06-32.39 2.53-10.628 5.567-21.255 9.615-31.883 4.05-10.12 9.11-19.737 15.182-27.834s13.158-14.676 21.76-19.737c8.097-5.06 17.713-7.59 28.846-7.59 11.64 0 23.28 3.543 33.907 10.628 11.134 6.58 19.23 15.182 24.798 25.8l4.555-78.947c0-6.073.506-13.664 1.518-21.76.506-8.603 2.024-16.7 4.05-24.29 2.024-7.085 5.567-13.664 10.12-19.23 4.555-5.06 11.134-7.59 20.243-7.59 9.615 0 17.206 2.024 22.267 6.58 5.06 5.06 9.11 10.628 11.64 17.713s4.05 14.676 4.555 23.28c.506 8.097.506 15.688.506 22.773zM511.5 412.66c0-7.59 0-15.182-.506-22.267s-.506-14.676 0-22.267c-2.024-4.05-4.05-9.11-7.085-14.17-2.53-5.06-5.567-9.615-9.615-14.17-3.543-4.555-7.59-8.097-12.652-11.134-4.555-3.036-9.11-4.555-14.676-4.555-6.073 0-10.628 2.024-14.17 5.567s-6.58 8.097-8.097 13.158-2.53 10.628-3.036 16.7c-.506 5.567-1.012 10.628-1.012 15.182 0 4.05.506 9.615 1.012 17.206 1.012 8.097 2.024 15.688 4.05 23.785 1.518 7.59 4.05 14.676 7.59 20.75 3.036 6.073 7.59 8.603 13.158 8.603 4.555 0 8.603-.506 13.158-2.53 4.05-1.518 8.097-4.05 11.64-7.085 4.05-2.53 7.59-5.567 11.134-9.11s6.58-6.58 9.11-9.615v-4.05z"/><use xlink:href="#B" x="366.21"/><use xlink:href="#C"/><use xlink:href="#C" x="231.785"/><path d="M1315.983 662.155c-7.59 0-16.7-1.012-26.822-3.543s-19.737-6.073-28.34-10.628c-9.11-4.555-16.7-10.12-22.773-16.7s-9.11-14.17-9.11-22.773c0-3.543 1.012-6.58 2.53-10.12 1.518-3.036 4.05-6.073 6.58-8.603 3.036-2.53 6.073-4.555 9.11-6.073 3.543-1.518 7.085-2.024 10.628-2.024 4.05 0 7.59.506 11.64 1.518 3.543 1.518 7.59 2.53 11.64 4.555l12.652 4.555c4.05 1.012 8.603 1.518 13.158 1.518 8.097 0 15.182-2.53 21.255-8.097s11.134-13.158 15.688-22.267c4.05-9.11 7.59-18.725 10.12-29.858 3.036-11.134 5.06-22.267 6.58-32.895 1.518-11.134 2.53-21.255 3.036-30.87l1.518-23.28c-11.64 17.713-23.28 30.87-34.413 40.486s-25.304 14.17-41.498 14.17c-12.652 0-23.785-2.53-32.895-8.097-9.615-5.06-17.713-12.146-24.29-20.75s-12.146-18.22-16.194-29.352-7.59-22.267-9.615-34.413c-2.024-11.64-3.543-23.28-4.05-34.92-1.012-11.134-1.012-21.76 0-31.377 0-7.085 1.012-16.7 2.53-28.34s4.05-23.28 7.085-34.413c3.543-11.134 8.097-20.75 14.17-28.34 5.567-7.59 13.664-11.134 22.773-10.628 6.58.506 11.64 3.036 15.688 8.097 3.543 5.06 7.085 11.64 9.615 19.23s4.05 15.688 5.06 24.798c1.518 9.11 2.024 18.22 2.53 26.822.506 9.11.506 17.206 0 24.798v16.7c0 6.073 0 11.64.506 17.206 0 5.567 1.518 10.628 3.543 14.676 2.024 4.555 5.06 8.097 9.11 10.628 4.05 3.036 9.615 4.05 17.206 4.05 8.603 0 15.688-2.024 20.75-6.073 5.06-4.555 9.11-9.615 11.134-16.194 2.53-6.58 4.05-13.664 5.06-20.75.506-7.59 1.012-14.676 1.012-21.255v-37.45c0-7.085 1.012-14.17 2.024-21.255s3.036-13.664 5.567-19.23c2.53-6.073 5.567-10.628 9.615-14.17s9.615-5.567 16.194-5.567c8.097 0 15.182 3.036 21.255 9.615s11.134 14.676 15.182 25.304c4.05 10.12 7.085 21.76 9.615 34.413 2.53 12.146 4.555 24.798 6.073 36.943l2.53 34.413c.506 10.12.506 18.22.506 24.29 0 13.664-.506 29.858-1.518 47.065-.506 17.713-2.53 35.93-5.567 54.656-2.53 18.725-7.085 36.943-12.652 54.656-5.567 18.22-12.652 33.907-21.76 48.077s-20.243 25.8-33.4 34.413-28.846 12.652-47.57 12.652z"/></g><g transform="matrix(.490192 0 0 .490192 202.904 -15.69)"><path d="M256.002 32c-141.152 0-256 100.48-256 224 0 50.624 19.328 99.2 54.816 138.24L3.874 453.57c-4.096 4.736-5.024 11.424-2.4 17.088C4.066 476.353 9.762 480 16.002 480h240c141.152 0 256-100.48 256-224s-114.848-224-256-224z" fill="#ee3475" fill-rule="nonzero"/><g fill="#fafafa"><circle cx="256.002" cy="256.001" r="32"/><circle cx="128.002" cy="256.001" r="32"/><circle cx="384.002" cy="256.001" r="32"/></g></g><defs ><path id="B" d="M343.85 341.305v14.676c0 5.06 0 10.12-.506 14.676 0 5.567-.506 13.158-.506 22.267 0 9.615 0 19.737-1.012 30.364a372.16 372.16 0 0 1-3.036 33.401c-1.518 11.134-4.05 21.255-7.085 30.364-3.543 9.615-7.59 17.206-13.158 22.773s-12.146 8.603-20.75 9.11c-6.073.506-11.134-2.024-15.688-7.59-4.05-5.06-7.59-12.146-10.628-20.243-2.53-8.603-4.555-17.713-6.073-28.34-1.518-10.12-2.53-20.243-3.036-29.858-.506-10.12-1.012-18.725-1.012-27.328V365.1c0-9.615.506-20.243 1.012-31.377s2.024-22.773 3.543-34.413c2.024-11.134 4.555-21.76 8.097-31.377s8.097-17.206 13.664-23.28 12.652-9.11 21.255-9.11 15.688 4.555 20.243 13.664c4.555 8.603 8.097 19.23 10.12 30.87 2.53 12.146 4.05 23.785 4.05 35.425.506 11.64.506 20.243.506 25.8z"/><path id="C" d="M967.285 471.87c0 6.58-3.036 12.652-8.097 17.206-5.567 5.06-12.652 9.615-20.75 13.664-8.603 4.05-18.22 7.085-28.846 9.615s-21.255 5.06-31.377 6.58c-10.628 1.518-20.243 3.036-29.858 3.543-9.11 1.012-16.194 1.518-22.267 1.518-5.567 0-13.158-.506-23.28-.506-10.12-.506-19.737-1.518-29.858-4.05-10.12-2.024-18.22-5.567-25.8-10.12-7.085-5.06-10.628-11.64-10.628-20.243 0-6.58 2.024-14.676 6.58-23.785 5.06-9.615 10.628-20.243 18.22-31.377 7.085-11.134 15.182-22.773 23.785-34.413l26.316-33.907 24.29-29.858c7.59-9.11 13.664-16.7 17.713-22.267-4.555 1.012-10.628 2.024-17.713 4.05s-14.17 3.543-21.76 5.06c-7.59 2.024-14.676 3.036-21.76 4.555-7.085 1.012-13.158 1.518-18.22 1.518-4.05 0-8.603-.506-13.158-2.024-5.06-1.518-9.615-3.543-14.17-6.58-4.555-2.53-8.603-5.567-11.64-9.11s-4.555-7.59-4.555-12.652c0-5.567 2.53-11.134 8.097-16.194 5.06-5.06 12.146-9.615 20.75-14.17 8.603-4.05 17.713-7.59 28.34-10.628s21.255-6.073 31.377-8.097 19.737-3.543 28.846-4.555c9.615-1.012 16.7-1.518 22.267-1.518 6.58 0 14.17.506 22.773 2.024 9.11 1.518 17.713 3.543 26.316 7.085 8.097 3.036 15.182 7.59 21.255 13.158s9.11 12.652 9.11 21.255c0 2.53-.506 5.06-1.012 7.085s-1.012 4.555-1.518 7.085c-1.012 2.53-3.543 7.59-8.603 15.688s-11.64 17.713-18.725 28.846l-24.29 35.425-25.304 35.93c-7.59 11.134-14.676 20.75-20.75 29.352l-11.64 17.713c13.664-4.05 27.328-7.085 40.992-9.11 14.17-2.53 28.34-4.05 42.004-4.05 3.036 0 7.59.506 12.652.506 5.567.506 10.628 1.518 15.688 3.036 4.555 1.012 9.11 3.543 12.652 6.073 3.543 3.036 5.567 6.58 5.567 11.64z"/></defs></svg>