<?xml version="1.0" standalone="no"?>
<!DOCTYPE svg PUBLIC "-//W3C//DTD SVG 20010904//EN"
 "http://www.w3.org/TR/2001/REC-SVG-20010904/DTD/svg10.dtd">
<svg version="1.0" xmlns="http://www.w3.org/2000/svg"
 width="260.000000pt" height="260.000000pt" viewBox="0 0 260.000000 260.000000"
 preserveAspectRatio="xMidYMid meet">
<metadata>
Created by potrace 1.11, written by Peter Selinger 2001-2013
</metadata>
<g transform="translate(0.000000,260.000000) scale(0.100000,-0.100000)"
fill="#000000" stroke="none">
<path d="M1120 2554 c-223 -36 -438 -129 -600 -259 -47 -37 -196 -190 -220
-225 -13 -19 -27 -37 -30 -40 -39 -32 -166 -305 -185 -397 -45 -215 -52 -379
-23 -542 72 -406 334 -748 709 -925 213 -101 429 -136 682 -111 151 14 346 81
491 166 494 292 730 884 571 1432 -100 346 -356 648 -671 792 -71 33 -154 66
-174 70 -8 2 -42 10 -75 18 -33 9 -80 18 -105 22 -81 12 -293 12 -370 -1z"/>
</g>
</svg>
